<svg viewBox="0 0 288 271" fill="none" xmlns="http://www.w3.org/2000/svg">
<path d="M0 224.529C0 219.007 4.47715 214.529 10 214.529H278C283.523 214.529 288 219.007 288 224.529V261C288 266.523 283.523 271 278 271H10C4.47715 271 0 266.523 0 261V224.529Z" fill="url(#paint0_linear_7_7)"/>
<rect y="211" width="288" height="56.4706" rx="10" fill="url(#paint1_linear_7_7)"/>
<rect x="2" y="213.353" width="284" height="51.7647" rx="8" fill="#241F31"/>
<rect x="30" y="183.667" width="48" height="21.3333" rx="5" fill="#1C71D8"/>
<rect x="30" y="181" width="48" height="21.3333" rx="5" fill="#99C1F1"/>
<rect x="90" y="183.667" width="48" height="21.3333" rx="5" fill="#1C71D8"/>
<rect x="90" y="181" width="48" height="21.3333" rx="5" fill="#99C1F1"/>
<rect x="150" y="182.667" width="48" height="21.3333" rx="5" fill="#1C71D8"/>
<rect x="150" y="180" width="48" height="21.3333" rx="5" fill="#99C1F1"/>
<rect x="30" y="153.667" width="48" height="21.3333" rx="5" fill="#1C71D8"/>
<rect x="30" y="151" width="48" height="21.3333" rx="5" fill="#99C1F1"/>
<rect x="90" y="153.667" width="48" height="21.3333" rx="5" fill="#1A5FB4"/>
<rect x="90" y="151" width="48" height="21.3333" rx="5" fill="#3584E4"/>
<rect x="150" y="152.667" width="48" height="21.3333" rx="5" fill="#1C71D8"/>
<rect x="150" y="150" width="48" height="21.3333" rx="5" fill="#99C1F1"/>
<rect x="30" y="123.667" width="48" height="21.3333" rx="5" fill="#1C71D8"/>
<rect x="30" y="121" width="48" height="21.3333" rx="5" fill="#99C1F1"/>
<rect x="30" y="93.6667" width="48" height="21.3333" rx="5" fill="#1C71D8"/>
<rect x="30" y="91" width="48" height="21.3333" rx="5" fill="#99C1F1"/>
<rect x="30" y="63.6667" width="48" height="21.3333" rx="5" fill="#1A5FB4"/>
<rect x="30" y="61" width="48" height="21.3333" rx="5" fill="#3584E4"/>
<rect x="150" y="122.667" width="48" height="21.3333" rx="5" fill="#1C71D8"/>
<rect x="150" y="120" width="48" height="21.3333" rx="5" fill="#99C1F1"/>
<rect x="210" y="182.667" width="48" height="21.3333" rx="5" fill="#1C71D8"/>
<rect x="210" y="180" width="48" height="21.3333" rx="5" fill="#99C1F1"/>
<rect x="210" y="122.667" width="48" height="21.3333" rx="5" fill="#1A5FB4"/>
<rect x="210" y="120" width="48" height="21.3333" rx="5" fill="#3584E4"/>
<rect x="210" y="152.667" width="48" height="21.3333" rx="5" fill="#1C71D8"/>
<rect x="210" y="150" width="48" height="21.3333" rx="5" fill="#99C1F1"/>
<rect x="150" y="92.6667" width="48" height="21.3333" rx="5" fill="#1C71D8"/>
<rect x="150" y="90" width="48" height="21.3333" rx="5" fill="#99C1F1"/>
<rect x="150" y="32.6667" width="48" height="21.3333" rx="5" fill="#1C71D8"/>
<rect x="150" y="30" width="48" height="21.3333" rx="5" fill="#99C1F1"/>
<rect x="150" y="62.6667" width="48" height="21.3333" rx="5" fill="#1C71D8"/>
<rect x="150" y="60" width="48" height="21.3333" rx="5" fill="#99C1F1"/>
<rect x="150" y="2.66666" width="48" height="21.3333" rx="5" fill="#1A5FB4"/>
<rect x="150" width="48" height="21.3333" rx="5" fill="#3584E4"/>
<circle cx="144" cy="239" r="14" fill="#DEDDDA"/>
<rect x="138.75" y="233.75" width="10.5" height="10.5" rx="2" fill="#241F31"/>
<defs>
<linearGradient id="paint0_linear_7_7" x1="0" y1="242.765" x2="288" y2="242.765" gradientUnits="userSpaceOnUse">
<stop stop-color="#3D3846"/>
<stop offset="0.01" stop-color="#968AAC"/>
<stop offset="0.03" stop-color="#3D3846"/>
<stop offset="0.97" stop-color="#3D3846"/>
<stop offset="0.99" stop-color="#968AAC"/>
<stop offset="1" stop-color="#3D3846"/>
</linearGradient>
<linearGradient id="paint1_linear_7_7" x1="0" y1="239.235" x2="288" y2="239.235" gradientUnits="userSpaceOnUse">
<stop stop-color="#77767B"/>
<stop offset="0.00999999" stop-color="#CDCCD4"/>
<stop offset="0.03" stop-color="#77767B"/>
<stop offset="0.97" stop-color="#77767B"/>
<stop offset="0.99" stop-color="#CDCCD4"/>
<stop offset="1" stop-color="#77767B"/>
</linearGradient>
</defs>
</svg>